SplineFontDB: 3.2
FontName: io10-Regular
FullName: io10 Regular
FamilyName: io10
Weight: Book
Copyright: Copyright (c) 2023, robert
Version: 001.000
ItalicAngle: 0
UnderlinePosition: -100
UnderlineWidth: 50
Ascent: 800
Descent: 200
InvalidEm: 0
sfntRevision: 0x00010000
LayerCount: 2
Layer: 0 1 "Back" 1
Layer: 1 1 "Fore" 0
XUID: [1021 672 1890580861 5130446]
StyleMap: 0x0000
FSType: 0
OS2Version: 4
OS2_WeightWidthSlopeOnly: 0
OS2_UseTypoMetrics: 1
CreationTime: 1693479270
ModificationTime: 1693548113
PfmFamily: 17
TTFWeight: 400
TTFWidth: 5
LineGap: -10
VLineGap: 0
Panose: 2 0 5 9 0 0 0 0 0 0
OS2TypoAscent: 800
OS2TypoAOffset: 0
OS2TypoDescent: -200
OS2TypoDOffset: 0
OS2TypoLinegap: -10
OS2WinAscent: 804
OS2WinAOffset: 0
OS2WinDescent: 210
OS2WinDOffset: 0
HheadAscent: 804
HheadAOffset: 0
HheadDescent: -210
HheadDOffset: 0
OS2SubXSize: 650
OS2SubYSize: 700
OS2SubXOff: 0
OS2SubYOff: 140
OS2SupXSize: 650
OS2SupYSize: 700
OS2SupXOff: 0
OS2SupYOff: 480
OS2StrikeYSize: 49
OS2StrikeYPos: 258
OS2Vendor: 'PfEd'
OS2CodePages: 00000001.00000000
OS2UnicodeRanges: 00000000.10000000.00000000.00000000
MarkAttachClasses: 1
DEI: 91125
ShortTable: cvt  2
  33
  633
EndShort
ShortTable: maxp 16
  1
  0
  56
  30
  2
  0
  0
  2
  0
  1
  1
  0
  64
  46
  0
  0
EndShort
LangName: 1033 "" "" "" "FontForge 2.0 : io10 Regular : 31-8-2023"
GaspTable: 1 65535 2 0
Encoding: UnicodeBmp
UnicodeInterp: none
NameList: AGL For New Fonts
DisplaySize: -48
AntiAlias: 1
FitToEm: 0
WinInfo: 54 27 10
BeginPrivate: 0
EndPrivate
BeginChars: 65539 56

StartChar: .notdef
Encoding: 65536 -1 0
Width: 1000
Flags: W
LayerCount: 2
Fore
SplineSet
33 0 m 1,0,-1
 33 666 l 1,1,-1
 298 666 l 1,2,-1
 298 0 l 1,3,-1
 33 0 l 1,0,-1
66 33 m 1,4,-1
 265 33 l 1,5,-1
 265 633 l 1,6,-1
 66 633 l 1,7,-1
 66 33 l 1,4,-1
EndSplineSet
Validated: 1
EndChar

StartChar: uniE041
Encoding: 57409 57409 3
Width: 1000
Flags: W
LayerCount: 2
Fore
SplineSet
500 238 m 1,0,-1
 500 550 l 1,1,-1
 750 550 l 1,2,-1
 1000 550 l 1,3,-1
 1000 238 l 1,4,-1
 1000 -75 l 1,5,-1
 750 -75 l 1,6,-1
 500 -75 l 1,7,-1
 500 238 l 1,0,-1
EndSplineSet
Validated: 1
EndChar

StartChar: uniE042
Encoding: 57410 57410 4
Width: 1000
Flags: W
LayerCount: 2
Fore
SplineSet
0 238 m 1,0,-1
 0 550 l 1,1,-1
 156 550 l 1,2,-1
 312 550 l 1,3,-1
 312 238 l 1,4,-1
 312 -75 l 1,5,-1
 156 -75 l 1,6,-1
 0 -75 l 1,7,-1
 0 238 l 1,0,-1
EndSplineSet
Validated: 1
EndChar

StartChar: uniE046
Encoding: 57414 57414 5
Width: 1000
Flags: W
LayerCount: 2
Fore
SplineSet
922 -138 m 0,0,1
 976 -79 976 -79 988 -79 c 128,-1,2
 1000 -79 1000 -79 1000 -138 c 0,3,4
 1000 -170 1000 -170 983.5 -185 c 128,-1,5
 967 -200 967 -200 931 -200 c 0,6,7
 884 -200 884 -200 882 -191 c 128,-1,8
 880 -182 880 -182 922 -138 c 0,0,1
EndSplineSet
Validated: 33
EndChar

StartChar: uniE047
Encoding: 57415 57415 6
Width: 1000
Flags: W
LayerCount: 2
Fore
SplineSet
66 31 m 2,0,-1
 131 144 l 1,1,-1
 519 144 l 1,2,-1
 906 144 l 1,3,-1
 906 -28 l 1,4,-1
 906 -200 l 1,5,-1
 453 -200 l 2,6,7
 111 -200 111 -200 51 -189 c 0,8,9
 7 -181 7 -181 2 -158 c 0,10,11
 0 -152 0 -152 0 -141 c 0,12,13
 0 -114 0 -114 19 -63 c 128,-1,14
 38 -12 38 -12 66 31 c 2,0,-1
EndSplineSet
Validated: 1
EndChar

StartChar: uniE049
Encoding: 57417 57417 7
Width: 1000
Flags: W
LayerCount: 2
Fore
SplineSet
697 159 m 0,0,1
 709 162 709 162 731 167 c 0,2,3
 782 178 782 178 804.5 183 c 128,-1,4
 827 188 827 188 862 193.5 c 128,-1,5
 897 199 897 199 908.5 201 c 128,-1,6
 920 203 920 203 941.5 200 c 128,-1,7
 963 197 963 197 967.5 194.5 c 128,-1,8
 972 192 972 192 982.5 179 c 128,-1,9
 993 166 993 166 993.5 157.5 c 128,-1,10
 994 149 994 149 997.5 124 c 128,-1,11
 1001 99 1001 99 1000.5 82.5 c 128,-1,12
 1000 66 1000 66 1000 29 c 0,13,14
 1000 12 1000 12 1000 3 c 2,15,-1
 1000 -200 l 1,16,-1
 525 -200 l 1,17,-1
 53 -200 l 1,18,-1
 122 -125 l 2,19,20
 202 -40 202 -40 368 42 c 128,-1,21
 534 124 534 124 697 159 c 0,0,1
EndSplineSet
Validated: 33
EndChar

StartChar: uniE04A
Encoding: 57418 57418 8
Width: 1000
Flags: W
LayerCount: 2
Fore
SplineSet
0 6 m 1,0,-1
 0 216 l 1,1,-1
 212 197 l 2,2,3
 637 159 637 159 869 -12 c 0,4,5
 989 -99 989 -99 1002 -133 c 0,6,7
 1014 -165 1014 -165 956 -179 c 0,8,9
 872 -200 872 -200 500 -200 c 2,10,-1
 0 -200 l 1,11,-1
 0 6 l 1,0,-1
EndSplineSet
Validated: 33
EndChar

StartChar: uniE04B
Encoding: 57419 57419 9
Width: 1000
Flags: W
LayerCount: 2
Fore
SplineSet
0 -150 m 0,0,1
 0 -132 0 -132 9.5 -123.5 c 128,-1,2
 19 -115 19 -115 31 -122 c 0,3,4
 45 -129 45 -129 53.5 -143 c 128,-1,5
 62 -157 62 -157 62 -172 c 0,6,7
 62 -184 62 -184 53.5 -192 c 128,-1,8
 45 -200 45 -200 31 -200 c 0,9,10
 19 -200 19 -200 9.5 -185.5 c 128,-1,11
 0 -171 0 -171 0 -150 c 0,0,1
EndSplineSet
Validated: 1
EndChar

StartChar: uniE04C
Encoding: 57420 57420 10
Width: 1000
Flags: W
LayerCount: 2
Fore
SplineSet
656 81 m 1,0,-1
 656 362 l 1,1,-1
 828 362 l 1,2,-1
 1000 362 l 1,3,-1
 1000 81 l 1,4,-1
 1000 -200 l 1,5,-1
 828 -200 l 1,6,-1
 656 -200 l 1,7,-1
 656 81 l 1,0,-1
EndSplineSet
Validated: 1
EndChar

StartChar: uniE04D
Encoding: 57421 57421 11
Width: 1000
Flags: W
LayerCount: 2
Fore
SplineSet
0 81 m 1,0,-1
 0 362 l 1,1,-1
 500 362 l 1,2,-1
 1000 362 l 1,3,-1
 1000 81 l 1,4,-1
 1000 -200 l 1,5,-1
 500 -200 l 1,6,-1
 0 -200 l 1,7,-1
 0 81 l 1,0,-1
EndSplineSet
Validated: 1
EndChar

StartChar: uniE04E
Encoding: 57422 57422 12
Width: 1000
Flags: W
LayerCount: 2
Fore
SplineSet
0 81 m 1,0,-1
 0 362 l 1,1,-1
 156 362 l 1,2,-1
 312 362 l 1,3,-1
 312 81 l 1,4,-1
 312 -200 l 1,5,-1
 156 -200 l 1,6,-1
 0 -200 l 1,7,-1
 0 81 l 1,0,-1
EndSplineSet
Validated: 1
EndChar

StartChar: uniE04F
Encoding: 57423 57423 13
Width: 1000
Flags: W
LayerCount: 2
Fore
SplineSet
750 234 m 0,0,1
 820 274 820 274 883 302.5 c 128,-1,2
 946 331 946 331 962 331 c 0,3,4
 983 331 983 331 991.5 270.5 c 128,-1,5
 1000 210 1000 210 1000 66 c 2,6,-1
 1000 -200 l 1,7,-1
 641 -200 l 2,8,9
 369 -200 369 -200 326 -189 c 0,10,11
 295 -181 295 -181 302 -159 c 0,12,13
 304 -153 304 -153 309 -144 c 0,14,15
 352 -68 352 -68 487 48.5 c 128,-1,16
 622 165 622 165 750 234 c 0,0,1
EndSplineSet
Validated: 33
EndChar

StartChar: uniE050
Encoding: 57424 57424 14
Width: 1000
Flags: W
LayerCount: 2
Fore
SplineSet
328 409 m 0,0,1
 370 423 370 423 538 422 c 128,-1,2
 706 421 706 421 838 406 c 2,3,-1
 1000 384 l 1,4,-1
 1000 88 l 1,5,-1
 1000 -209 l 1,6,-1
 853 -184 l 2,7,8
 715 -161 715 -161 580.5 -161 c 128,-1,9
 446 -161 446 -161 228 -184 c 2,10,-1
 0 -209 l 1,11,-1
 0 75 l 1,12,-1
 0 359 l 1,13,-1
 150 378 l 1,14,15
 312 403 312 403 328 409 c 0,0,1
EndSplineSet
Validated: 33
EndChar

StartChar: uniE051
Encoding: 57425 57425 15
Width: 1000
Flags: W
LayerCount: 2
Fore
SplineSet
0 84 m 1,0,-1
 0 372 l 1,1,-1
 100 350 l 2,2,3
 244 322 244 322 408 229.5 c 128,-1,4
 572 137 572 137 688 19 c 0,5,6
 750 -44 750 -44 797 -102 c 128,-1,7
 844 -160 844 -160 844 -172 c 0,8,9
 844 -180 844 -180 789 -186 c 128,-1,10
 734 -192 734 -192 637 -196 c 128,-1,11
 540 -200 540 -200 422 -200 c 2,12,-1
 0 -200 l 1,13,-1
 0 84 l 1,0,-1
919 447 m 0,14,15
 926 464 926 464 940.5 476 c 128,-1,16
 955 488 955 488 969 488 c 0,17,18
 1003 488 1003 488 994 169 c 0,19,20
 989 23 989 23 978 -63 c 128,-1,21
 967 -149 967 -149 953 -147 c 0,22,23
 942 -144 942 -144 931 -60.5 c 128,-1,24
 920 23 920 23 913.5 125.5 c 128,-1,25
 907 228 907 228 908 324 c 128,-1,26
 909 420 909 420 919 447 c 0,14,15
EndSplineSet
Validated: 33
EndChar

StartChar: uniE052
Encoding: 57426 57426 16
Width: 1000
Flags: W
LayerCount: 2
Fore
SplineSet
688 688 m 0,0,1
 756 731 756 731 828 762.5 c 128,-1,2
 900 794 900 794 931 797 c 0,3,4
 970 799 970 799 981 784 c 0,5,6
 998 761 998 761 1000 634 c 0,7,8
 1000 601 1000 601 1000 538 c 0,9,10
 1000 482 1000 482 999.5 458 c 128,-1,11
 999 434 999 434 999 398.5 c 128,-1,12
 999 363 999 363 995.5 348.5 c 128,-1,13
 992 334 992 334 990.5 312.5 c 128,-1,14
 989 291 989 291 981 280.5 c 128,-1,15
 973 270 973 270 968 257 c 128,-1,16
 963 244 963 244 948 231 c 128,-1,17
 933 218 933 218 923.5 208 c 128,-1,18
 914 198 914 198 891 178 c 0,19,20
 745 51 745 51 509.5 -43.5 c 128,-1,21
 274 -138 274 -138 103 -138 c 2,22,-1
 0 -138 l 1,23,-1
 0 175 l 1,24,-1
 0 488 l 1,25,-1
 103 488 l 2,26,27
 222 488 222 488 383 543 c 128,-1,28
 544 598 544 598 688 688 c 0,0,1
EndSplineSet
Validated: 33
EndChar

StartChar: uniE053
Encoding: 57427 57427 17
Width: 1000
Flags: W
LayerCount: 2
Fore
SplineSet
0 544 m 2,0,-1
 0 800 l 1,1,-1
 453 800 l 1,2,-1
 906 800 l 1,3,-1
 906 300 l 1,4,-1
 906 -200 l 1,5,-1
 500 -200 l 1,6,-1
 94 -200 l 1,7,-1
 94 103 l 2,8,9
 94 333 94 333 83 359 c 0,10,11
 76 379 76 379 53 351 c 0,12,13
 50 348 50 348 47 344 c 0,14,15
 22 311 22 311 14 323 c 0,16,17
 3 339 3 339 0 519 c 0,18,19
 0 530 0 530 0 544 c 2,0,-1
EndSplineSet
Validated: 33
EndChar

StartChar: uniE054
Encoding: 57428 57428 18
Width: 1000
Flags: W
LayerCount: 2
Fore
SplineSet
894 575 m 0,0,1
 974 706 974 706 984 706 c 0,2,3
 991 706 991 706 995.5 575.5 c 128,-1,4
 1000 445 1000 445 1000 253 c 2,5,-1
 1000 -200 l 1,6,-1
 828 -200 l 1,7,-1
 653 -200 l 1,8,-1
 675 -84 l 2,9,10
 703 74 703 74 769 273 c 128,-1,11
 835 472 835 472 894 575 c 0,0,1
EndSplineSet
Validated: 1
EndChar

StartChar: uniE055
Encoding: 57429 57429 19
Width: 1000
Flags: W
LayerCount: 2
Fore
SplineSet
22 778 m 0,0,1
 29 787 29 787 175 793.5 c 128,-1,2
 321 800 321 800 522 800 c 2,3,-1
 1000 800 l 1,4,-1
 1000 678 l 2,5,6
 1000 635 1000 635 997.5 613.5 c 128,-1,7
 995 592 995 592 985 576 c 128,-1,8
 975 560 975 560 959.5 553.5 c 128,-1,9
 944 547 944 547 912 541 c 0,10,11
 763 510 763 510 657.5 366.5 c 128,-1,12
 552 223 552 223 500 -19 c 1,13,-1
 466 -200 l 1,14,-1
 231 -200 l 1,15,-1
 0 -200 l 1,16,-1
 0 278 l 2,17,18
 0 479 0 479 6.5 625 c 128,-1,19
 13 771 13 771 22 778 c 0,0,1
EndSplineSet
Validated: 1
EndChar

StartChar: uniE056
Encoding: 57430 57430 20
Width: 1000
Flags: W
LayerCount: 2
Fore
SplineSet
0 675 m 1,0,-1
 0 800 l 1,1,-1
 500 800 l 1,2,-1
 1000 800 l 1,3,-1
 1000 300 l 1,4,-1
 1000 -200 l 1,5,-1
 831 -200 l 1,6,-1
 666 -200 l 1,7,-1
 644 -53 l 2,8,9
 637 10 637 10 608.5 102 c 128,-1,10
 580 194 580 194 547 259 c 0,11,12
 479 407 479 407 377 478.5 c 128,-1,13
 275 550 275 550 134 550 c 2,14,-1
 0 550 l 1,15,-1
 0 675 l 1,0,-1
EndSplineSet
Validated: 1
EndChar

StartChar: uniE057
Encoding: 57431 57431 21
Width: 1000
Flags: W
LayerCount: 2
Fore
SplineSet
0 303 m 2,0,1
 0 684 0 684 11 748 c 0,2,3
 19 793 19 793 40 795 c 0,4,5
 45 795 45 795 53 794 c 0,6,7
 100 785 100 785 164 697 c 128,-1,8
 228 609 228 609 287 484.5 c 128,-1,9
 346 360 346 360 394 210.5 c 128,-1,10
 442 61 442 61 459 -62 c 2,11,-1
 478 -200 l 1,12,-1
 238 -200 l 1,13,-1
 0 -200 l 1,14,-1
 0 303 l 2,0,1
EndSplineSet
Validated: 1
EndChar

StartChar: uniE059
Encoding: 57433 57433 22
Width: 1000
Flags: W
LayerCount: 2
Fore
SplineSet
500 300 m 1,0,-1
 500 800 l 1,1,-1
 750 800 l 1,2,-1
 1000 800 l 1,3,-1
 1000 300 l 1,4,-1
 1000 -200 l 1,5,-1
 750 -200 l 1,6,-1
 500 -200 l 1,7,-1
 500 300 l 1,0,-1
EndSplineSet
Validated: 1
EndChar

StartChar: uniE05A
Encoding: 57434 57434 23
Width: 1000
Flags: W
LayerCount: 2
Fore
SplineSet
0 300 m 1,0,-1
 0 800 l 1,1,-1
 156 800 l 1,2,-1
 312 800 l 1,3,-1
 312 300 l 1,4,-1
 312 -200 l 1,5,-1
 156 -200 l 1,6,-1
 0 -200 l 1,7,-1
 0 300 l 1,0,-1
EndSplineSet
Validated: 1
EndChar

StartChar: uniE05B
Encoding: 57435 57435 24
Width: 1000
Flags: W
LayerCount: 2
Fore
SplineSet
234 731 m 0,0,1
 244 745 244 745 251 753 c 128,-1,2
 258 761 258 761 271 769.5 c 128,-1,3
 284 778 284 778 294.5 782 c 128,-1,4
 305 786 305 786 330.5 790 c 128,-1,5
 356 794 356 794 378 795.5 c 128,-1,6
 400 797 400 797 444.5 798.5 c 128,-1,7
 489 800 489 800 530.5 800 c 128,-1,8
 572 800 572 800 644 800 c 2,9,-1
 1000 800 l 1,10,-1
 1000 647 l 2,11,12
 1000 584 1000 584 990 512.5 c 128,-1,13
 980 441 980 441 966 403 c 0,14,15
 951 367 951 367 935 267 c 128,-1,16
 919 167 919 167 912 66 c 2,17,-1
 891 -184 l 1,18,-1
 456 -194 l 1,19,-1
 22 -203 l 1,20,-1
 41 28 l 2,21,22
 57 216 57 216 116.5 431.5 c 128,-1,23
 176 647 176 647 234 731 c 0,0,1
EndSplineSet
Validated: 1
EndChar

StartChar: uniE05C
Encoding: 57436 57436 25
Width: 1000
Flags: W
LayerCount: 2
Fore
SplineSet
878 791 m 0,0,1
 871 797 871 797 905 799 c 0,2,3
 916 800 916 800 931 800 c 0,4,5
 964 800 964 800 982 787 c 128,-1,6
 1000 774 1000 774 1000 750 c 0,7,8
 1000 717 1000 717 990 715 c 128,-1,9
 980 713 980 713 947 741 c 0,10,11
 934 750 934 750 917.5 762 c 128,-1,12
 901 774 901 774 891 781.5 c 128,-1,13
 881 789 881 789 878 791 c 0,0,1
0 669 m 1,14,-1
 0 800 l 1,15,-1
 134 800 l 2,16,17
 233 797 233 797 233 785 c 0,18,19
 232 779 232 779 212 769 c 0,20,21
 191 754 191 754 152 714.5 c 128,-1,22
 113 675 113 675 81 634 c 2,23,-1
 0 534 l 1,24,-1
 0 669 l 1,14,-1
EndSplineSet
Validated: 33
EndChar

StartChar: uniE05D
Encoding: 57437 57437 26
Width: 1000
Flags: W
LayerCount: 2
Fore
SplineSet
0 756 m 0,0,1
 0 770 0 770 17 778 c 128,-1,2
 34 786 34 786 84 791 c 128,-1,3
 134 796 134 796 215.5 798 c 128,-1,4
 297 800 297 800 434 800 c 2,5,-1
 869 800 l 1,6,-1
 934 647 l 2,7,8
 974 550 974 550 987 453.5 c 128,-1,9
 1000 357 1000 357 1000 147 c 2,10,-1
 1000 -200 l 1,11,-1
 609 -200 l 1,12,-1
 219 -200 l 1,13,-1
 219 -34 l 2,14,15
 219 125 219 125 175.5 307 c 128,-1,16
 132 489 132 489 69 597 c 0,17,18
 40 644 40 644 20 691 c 128,-1,19
 0 738 0 738 0 756 c 0,0,1
EndSplineSet
Validated: 1
EndChar

StartChar: uniE05E
Encoding: 57438 57438 27
Width: 1000
Flags: W
LayerCount: 2
Fore
SplineSet
3 106 m 0,0,1
 5 346 5 346 26 334 c 0,2,3
 49 321 49 321 78 22 c 0,4,5
 83 -29 83 -29 85.5 -61 c 128,-1,6
 88 -93 88 -93 88.5 -120 c 128,-1,7
 89 -147 89 -147 87.5 -161 c 128,-1,8
 86 -175 86 -175 81 -184.5 c 128,-1,9
 76 -194 76 -194 69 -197 c 128,-1,10
 62 -200 62 -200 50 -200 c 0,11,12
 33 -200 33 -200 24 -189 c 128,-1,13
 15 -178 15 -178 9 -145 c 128,-1,14
 3 -112 3 -112 3 -52 c 128,-1,15
 3 8 3 8 3 106 c 0,0,1
EndSplineSet
Validated: 33
EndChar

StartChar: uniE05F
Encoding: 57439 57439 28
Width: 1000
Flags: W
LayerCount: 2
Fore
SplineSet
94 300 m 1,0,-1
 94 800 l 1,1,-1
 500 800 l 1,2,-1
 906 800 l 1,3,-1
 906 300 l 1,4,-1
 906 -200 l 1,5,-1
 500 -200 l 1,6,-1
 94 -200 l 1,7,-1
 94 300 l 1,0,-1
EndSplineSet
Validated: 1
EndChar

StartChar: uniE060
Encoding: 57440 57440 29
Width: 1000
Flags: W
LayerCount: 2
Fore
SplineSet
644 703 m 0,0,1
 648 723 648 723 650.5 734 c 128,-1,2
 653 745 653 745 658.5 757.5 c 128,-1,3
 664 770 664 770 668 775 c 128,-1,4
 672 780 672 780 684 786.5 c 128,-1,5
 696 793 696 793 705.5 794.5 c 128,-1,6
 715 796 715 796 736.5 798 c 128,-1,7
 758 800 758 800 777 800 c 128,-1,8
 796 800 796 800 831 800 c 2,9,-1
 1000 800 l 1,10,-1
 1000 300 l 1,11,-1
 1000 -200 l 1,12,-1
 812 -200 l 1,13,-1
 625 -200 l 1,14,-1
 625 203 l 2,15,16
 625 365 625 365 631 513.5 c 128,-1,17
 637 662 637 662 644 703 c 0,0,1
EndSplineSet
Validated: 1
EndChar

StartChar: uniE061
Encoding: 57441 57441 30
Width: 1000
Flags: W
LayerCount: 2
Fore
SplineSet
750 191 m 1,0,-1
 750 550 l 1,1,-1
 875 550 l 1,2,-1
 1000 550 l 1,3,-1
 1000 191 l 1,4,-1
 1000 -169 l 1,5,-1
 875 -169 l 1,6,-1
 750 -169 l 1,7,-1
 750 191 l 1,0,-1
0 300 m 1,8,-1
 0 800 l 1,9,-1
 238 800 l 1,10,-1
 478 800 l 1,11,-1
 456 656 l 2,12,13
 449 593 449 593 443.5 445 c 128,-1,14
 438 297 438 297 438 156 c 2,15,-1
 438 -200 l 1,16,-1
 219 -200 l 1,17,-1
 0 -200 l 1,18,-1
 0 300 l 1,8,-1
EndSplineSet
Validated: 1
EndChar

StartChar: uniE062
Encoding: 57442 57442 31
Width: 1000
Flags: W
LayerCount: 2
Fore
SplineSet
0 191 m 1,0,-1
 0 550 l 1,1,-1
 188 550 l 1,2,-1
 375 550 l 1,3,-1
 375 191 l 1,4,-1
 375 -169 l 1,5,-1
 188 -169 l 1,6,-1
 0 -169 l 1,7,-1
 0 191 l 1,0,-1
681 300 m 1,8,-1
 672 800 l 1,9,-1
 838 800 l 1,10,-1
 1000 800 l 1,11,-1
 1000 300 l 1,12,-1
 1000 -200 l 1,13,-1
 844 -200 l 1,14,-1
 691 -200 l 1,15,-1
 681 300 l 1,8,-1
EndSplineSet
Validated: 1
EndChar

StartChar: uniE063
Encoding: 57443 57443 32
Width: 1000
Flags: W
LayerCount: 2
Fore
SplineSet
0 300 m 1,0,-1
 0 800 l 1,1,-1
 247 800 l 1,2,-1
 494 800 l 1,3,-1
 516 512 l 2,4,5
 525 396 525 396 527.5 248 c 128,-1,6
 530 100 530 100 525 19 c 2,7,-1
 516 -184 l 1,8,-1
 259 -194 l 1,9,-1
 0 -203 l 1,10,-1
 0 300 l 1,0,-1
EndSplineSet
Validated: 33
EndChar

StartChar: uniE065
Encoding: 57445 57445 33
Width: 1000
Flags: W
LayerCount: 2
Fore
SplineSet
500 300 m 1,0,-1
 500 800 l 1,1,-1
 750 800 l 1,2,-1
 1000 800 l 1,3,-1
 1000 300 l 1,4,-1
 1000 -200 l 1,5,-1
 750 -200 l 1,6,-1
 500 -200 l 1,7,-1
 500 300 l 1,0,-1
EndSplineSet
Validated: 1
EndChar

StartChar: uniE066
Encoding: 57446 57446 34
Width: 1000
Flags: W
LayerCount: 2
Fore
SplineSet
0 300 m 1,0,-1
 0 800 l 1,1,-1
 156 800 l 1,2,-1
 312 800 l 1,3,-1
 312 300 l 1,4,-1
 312 -200 l 1,5,-1
 156 -200 l 1,6,-1
 0 -200 l 1,7,-1
 0 300 l 1,0,-1
EndSplineSet
Validated: 1
EndChar

StartChar: uniE067
Encoding: 57447 57447 35
Width: 1000
Flags: W
LayerCount: 2
Fore
SplineSet
31 634 m 2,0,-1
 31 800 l 1,1,-1
 450 800 l 2,2,3
 469 800 469 800 506 800 c 0,4,5
 582 800 582 800 615.5 800.5 c 128,-1,6
 649 801 649 801 701 798 c 128,-1,7
 753 795 753 795 770.5 794.5 c 128,-1,8
 788 794 788 794 819.5 784 c 128,-1,9
 851 774 851 774 857.5 770 c 128,-1,10
 864 766 864 766 880 746 c 128,-1,11
 896 726 896 726 897 715 c 128,-1,12
 898 704 898 704 903 672 c 128,-1,13
 908 640 908 640 907 619 c 128,-1,14
 906 598 906 598 906 551 c 0,15,16
 906 530 906 530 906 519 c 0,17,18
 906 461 906 461 920 365.5 c 128,-1,19
 934 270 934 270 953 197 c 0,20,21
 972 121 972 121 986 36 c 128,-1,22
 1000 -49 1000 -49 1000 -91 c 2,23,-1
 1000 -200 l 1,24,-1
 625 -200 l 1,25,-1
 253 -200 l 1,26,-1
 203 -103 l 2,27,28
 145 7 145 7 88 251 c 128,-1,29
 31 495 31 495 31 634 c 2,0,-1
EndSplineSet
Validated: 33
EndChar

StartChar: uniE068
Encoding: 57448 57448 36
Width: 1000
Flags: W
LayerCount: 2
Fore
SplineSet
953 -169 m 0,0,1
 960 -155 960 -155 970 -146.5 c 128,-1,2
 980 -138 980 -138 988 -138 c 0,3,4
 992 -138 992 -138 996 -146.5 c 128,-1,5
 1000 -155 1000 -155 1000 -169 c 0,6,7
 1000 -181 1000 -181 989.5 -190.5 c 128,-1,8
 979 -200 979 -200 966 -200 c 0,9,10
 954 -200 954 -200 950 -190 c 128,-1,11
 946 -180 946 -180 953 -169 c 0,0,1
0 -84 m 2,12,-1
 0 31 l 1,13,-1
 50 -44 l 2,14,15
 110 -127 110 -127 150 -162 c 0,16,17
 183 -188 183 -188 170 -194 c 0,18,19
 158 -200 158 -200 100 -200 c 0,20,21
 74 -200 74 -200 60 -199.5 c 128,-1,22
 46 -199 46 -199 33 -194 c 128,-1,23
 20 -189 20 -189 15 -183.5 c 128,-1,24
 10 -178 10 -178 5.5 -163 c 128,-1,25
 1 -148 1 -148 0.5 -131.5 c 128,-1,26
 0 -115 0 -115 0 -84 c 2,12,-1
EndSplineSet
Validated: 33
EndChar

StartChar: uniE069
Encoding: 57449 57449 37
Width: 1000
Flags: W
LayerCount: 2
Fore
SplineSet
219 622 m 2,0,-1
 219 800 l 1,1,-1
 609 800 l 1,2,-1
 1000 800 l 1,3,-1
 1000 453 l 2,4,5
 1000 243 1000 243 987 146.5 c 128,-1,6
 974 50 974 50 934 -47 c 2,7,-1
 869 -200 l 1,8,-1
 434 -200 l 2,9,10
 312 -200 312 -200 212 -196 c 128,-1,11
 112 -192 112 -192 56 -186 c 128,-1,12
 0 -180 0 -180 0 -172 c 0,13,14
 0 -143 0 -143 69 -28 c 0,15,16
 133 83 133 83 176 267.5 c 128,-1,17
 219 452 219 452 219 622 c 2,0,-1
EndSplineSet
Validated: 1
EndChar

StartChar: uniE06A
Encoding: 57450 57450 38
Width: 1000
Flags: W
LayerCount: 2
Fore
SplineSet
3 481 m 0,0,1
 3 584 3 584 3 647 c 128,-1,2
 3 710 3 710 9 744 c 128,-1,3
 15 778 15 778 24 789 c 128,-1,4
 33 800 33 800 50 800 c 128,-1,5
 67 800 67 800 76 793 c 128,-1,6
 85 786 85 786 89 762.5 c 128,-1,7
 93 739 93 739 91 700 c 128,-1,8
 89 661 89 661 81 591 c 0,9,10
 43 228 43 228 21 248 c 0,11,12
 5 262 5 262 3 481 c 0,0,1
EndSplineSet
Validated: 33
EndChar

StartChar: uniE06B
Encoding: 57451 57451 39
Width: 1000
Flags: W
LayerCount: 2
Fore
SplineSet
94 300 m 1,0,-1
 94 800 l 1,1,-1
 500 800 l 1,2,-1
 906 800 l 1,3,-1
 906 300 l 1,4,-1
 906 -200 l 1,5,-1
 500 -200 l 1,6,-1
 94 -200 l 1,7,-1
 94 300 l 1,0,-1
EndSplineSet
Validated: 1
EndChar

StartChar: uniE06C
Encoding: 57452 57452 40
Width: 1000
Flags: W
LayerCount: 2
Fore
SplineSet
641 653 m 2,0,-1
 622 800 l 1,1,-1
 809 800 l 1,2,-1
 1000 800 l 1,3,-1
 1000 300 l 2,4,5
 1000 -77 1000 -77 989 -143 c 0,6,7
 981 -193 981 -193 956 -199 c 0,8,9
 950 -200 950 -200 941 -200 c 0,10,11
 896 -200 896 -200 836.5 -76.5 c 128,-1,12
 777 47 777 47 723.5 246 c 128,-1,13
 670 445 670 445 641 653 c 2,0,-1
EndSplineSet
Validated: 1
EndChar

StartChar: uniE06D
Encoding: 57453 57453 41
Width: 1000
Flags: W
LayerCount: 2
Fore
SplineSet
0 300 m 1,0,-1
 0 800 l 1,1,-1
 219 800 l 2,2,3
 232 800 232 800 256 800 c 0,4,5
 302 800 302 800 321 800.5 c 128,-1,6
 340 801 340 801 368 795.5 c 128,-1,7
 396 790 396 790 404.5 788 c 128,-1,8
 413 786 413 786 428.5 768 c 128,-1,9
 444 750 444 750 447 739 c 128,-1,10
 450 728 450 728 458.5 691 c 128,-1,11
 467 654 467 654 469.5 628.5 c 128,-1,12
 472 603 472 603 479 542 c 0,13,14
 482 511 482 511 484 494 c 0,15,16
 506 303 506 303 575 139.5 c 128,-1,17
 644 -24 644 -24 738 -103 c 2,18,-1
 847 -200 l 1,19,-1
 422 -200 l 1,20,-1
 0 -200 l 1,21,-1
 0 300 l 1,0,-1
EndSplineSet
Validated: 33
EndChar

StartChar: uniE06E
Encoding: 57454 57454 42
Width: 1000
Flags: W
LayerCount: 2
Fore
SplineSet
659 528 m 2,0,-1
 700 800 l 1,1,-1
 850 800 l 1,2,-1
 1000 800 l 1,3,-1
 1000 300 l 1,4,-1
 1000 -200 l 1,5,-1
 641 -200 l 1,6,-1
 278 -200 l 1,7,-1
 394 -97 l 2,8,9
 507 2 507 2 565.5 139.5 c 128,-1,10
 624 277 624 277 659 528 c 2,0,-1
EndSplineSet
Validated: 1
EndChar

StartChar: uniE06F
Encoding: 57455 57455 43
Width: 1000
Flags: W
LayerCount: 2
Fore
SplineSet
0 300 m 1,0,-1
 0 800 l 1,1,-1
 253 800 l 1,2,-1
 509 800 l 1,3,-1
 491 622 l 2,4,5
 472 454 472 454 425 274 c 128,-1,6
 378 94 378 94 316 -50 c 0,7,8
 299 -90 299 -90 289.5 -111 c 128,-1,9
 280 -132 280 -132 266.5 -152 c 128,-1,10
 253 -172 253 -172 244 -179.5 c 128,-1,11
 235 -187 235 -187 215 -193 c 128,-1,12
 195 -199 195 -199 177.5 -199.5 c 128,-1,13
 160 -200 160 -200 125 -200 c 2,14,-1
 0 -200 l 1,15,-1
 0 300 l 1,0,-1
EndSplineSet
Validated: 1
EndChar

StartChar: uniE070
Encoding: 57456 57456 44
Width: 1000
Flags: W
LayerCount: 2
Fore
SplineSet
344 472 m 1,0,-1
 344 738 l 1,1,-1
 672 738 l 1,2,-1
 1000 738 l 1,3,-1
 1000 472 l 1,4,-1
 1000 206 l 1,5,-1
 672 206 l 1,6,-1
 344 206 l 1,7,-1
 344 472 l 1,0,-1
EndSplineSet
Validated: 1
EndChar

StartChar: uniE071
Encoding: 57457 57457 45
Width: 1000
Flags: W
LayerCount: 2
Fore
SplineSet
500 769 m 128,-1,1
 500 783 500 783 569.5 791.5 c 128,-1,2
 639 800 639 800 750 800 c 2,3,-1
 1000 800 l 1,4,-1
 1000 503 l 1,5,-1
 1000 206 l 1,6,-1
 500 206 l 1,7,-1
 0 206 l 1,8,-1
 0 472 l 1,9,-1
 0 738 l 1,10,-1
 250 738 l 2,11,12
 361 738 361 738 430.5 746.5 c 128,-1,0
 500 755 500 755 500 769 c 128,-1,1
EndSplineSet
Validated: 1
EndChar

StartChar: uniE072
Encoding: 57458 57458 46
Width: 1000
Flags: W
LayerCount: 2
Fore
SplineSet
0 503 m 1,0,-1
 0 800 l 1,1,-1
 153 800 l 2,2,3
 220 800 220 800 270.5 791.5 c 128,-1,4
 321 783 321 783 328 769 c 128,-1,5
 335 755 335 755 434.5 746.5 c 128,-1,6
 534 738 534 738 675 738 c 2,7,-1
 1000 738 l 1,8,-1
 1000 472 l 1,9,-1
 1000 206 l 1,10,-1
 500 206 l 1,11,-1
 0 206 l 1,12,-1
 0 503 l 1,0,-1
EndSplineSet
Validated: 1
EndChar

StartChar: uniE073
Encoding: 57459 57459 47
Width: 1000
Flags: W
LayerCount: 2
Fore
SplineSet
266 769 m 0,0,1
 251 791 251 791 462 798 c 0,2,3
 532 800 532 800 622 800 c 2,4,-1
 1000 800 l 1,5,-1
 1000 503 l 1,6,-1
 1000 206 l 1,7,-1
 922 238 l 1,8,9
 804 282 804 282 691 350.5 c 128,-1,10
 578 419 578 419 491 500 c 0,11,12
 441 547 441 547 402 579.5 c 128,-1,13
 363 612 363 612 356 612 c 0,14,15
 353 612 353 612 350 585.5 c 128,-1,16
 347 559 347 559 345.5 511.5 c 128,-1,17
 344 464 344 464 344 409 c 2,18,-1
 344 206 l 1,19,-1
 172 206 l 1,20,-1
 0 206 l 1,21,-1
 0 472 l 1,22,-1
 0 738 l 1,23,-1
 144 738 l 2,24,25
 261 738 261 738 267 761 c 0,26,27
 268 765 268 765 266 769 c 0,0,1
EndSplineSet
Validated: 33
EndChar

StartChar: uniE074
Encoding: 57460 57460 48
Width: 1000
Flags: W
LayerCount: 2
Fore
SplineSet
0 506 m 2,0,-1
 0 800 l 1,1,-1
 103 800 l 2,2,3
 145 798 145 798 197.5 784.5 c 128,-1,4
 250 771 250 771 281 753 c 0,5,6
 331 724 331 724 439.5 713.5 c 128,-1,7
 548 703 548 703 658.5 713.5 c 128,-1,8
 769 724 769 724 825 753 c 0,9,10
 917 802 917 802 947 799 c 0,11,12
 981 795 981 795 991 728 c 0,13,14
 1000 673 1000 673 1000 491 c 2,15,-1
 1000 178 l 1,16,-1
 856 156 l 2,17,18
 735 140 735 140 425.5 152.5 c 128,-1,19
 116 165 116 165 56 191 c 0,20,21
 38 198 38 198 27.5 212 c 128,-1,22
 17 226 17 226 10.5 262.5 c 128,-1,23
 4 299 4 299 2 353.5 c 128,-1,24
 0 408 0 408 0 506 c 2,0,-1
EndSplineSet
Validated: 33
EndChar

StartChar: uniE075
Encoding: 57461 57461 49
Width: 1000
Flags: W
LayerCount: 2
Fore
SplineSet
938 503.5 m 128,-1,1
 938 637 938 637 946.5 718.5 c 128,-1,2
 955 800 955 800 969 800 c 128,-1,3
 983 800 983 800 991.5 718.5 c 128,-1,4
 1000 637 1000 637 1000 503.5 c 128,-1,5
 1000 370 1000 370 991.5 288 c 128,-1,6
 983 206 983 206 969 206 c 128,-1,7
 955 206 955 206 946.5 288 c 128,-1,0
 938 370 938 370 938 503.5 c 128,-1,1
0 491 m 1,8,-1
 0 800 l 1,9,-1
 422 800 l 2,10,11
 598 800 598 800 721 792 c 128,-1,12
 844 784 844 784 844 772 c 256,13,14
 844 760 844 760 798 700.5 c 128,-1,15
 752 641 752 641 691 575 c 0,16,17
 578 453 578 453 417.5 353.5 c 128,-1,18
 257 254 257 254 100 209 c 2,19,-1
 0 178 l 1,20,-1
 0 491 l 1,8,-1
EndSplineSet
Validated: 1
EndChar

StartChar: uniE076
Encoding: 57462 57462 50
Width: 1000
Flags: W
LayerCount: 2
Fore
SplineSet
0 503 m 1,0,-1
 0 800 l 1,1,-1
 500 800 l 1,2,-1
 1000 800 l 1,3,-1
 1000 503 l 1,4,-1
 1000 206 l 1,5,-1
 500 206 l 1,6,-1
 0 206 l 1,7,-1
 0 503 l 1,0,-1
EndSplineSet
Validated: 1
EndChar

StartChar: uniE077
Encoding: 57463 57463 51
Width: 1000
Flags: W
LayerCount: 2
Fore
SplineSet
0 503 m 1,0,-1
 0 800 l 1,1,-1
 500 800 l 1,2,-1
 1000 800 l 1,3,-1
 1000 503 l 1,4,-1
 1000 206 l 1,5,-1
 500 206 l 1,6,-1
 0 206 l 1,7,-1
 0 503 l 1,0,-1
EndSplineSet
Validated: 1
EndChar

StartChar: uniE078
Encoding: 57464 57464 52
Width: 1000
Flags: W
LayerCount: 2
Fore
SplineSet
906 778 m 0,0,1
 906 787 906 787 920 793.5 c 128,-1,2
 934 800 934 800 953 800 c 0,3,4
 1000 800 1000 800 1000 716 c 0,5,6
 1000 693 1000 693 999.5 681 c 128,-1,7
 999 669 999 669 997 661 c 128,-1,8
 995 653 995 653 993 651.5 c 128,-1,9
 991 650 991 650 984.5 655 c 128,-1,10
 978 660 978 660 972 668.5 c 128,-1,11
 966 677 966 677 953 694 c 0,12,13
 934 718 934 718 920 742.5 c 128,-1,14
 906 767 906 767 906 778 c 0,0,1
0 503 m 1,15,-1
 0 800 l 1,16,-1
 438 800 l 1,17,-1
 875 800 l 1,18,-1
 875 503 l 1,19,-1
 875 206 l 1,20,-1
 438 206 l 1,21,-1
 0 206 l 1,22,-1
 0 503 l 1,15,-1
EndSplineSet
Validated: 1
EndChar

StartChar: uniE079
Encoding: 57465 57465 53
Width: 1000
Flags: W
LayerCount: 2
Fore
SplineSet
0 706 m 2,0,-1
 0 800 l 1,1,-1
 500 800 l 1,2,-1
 1000 800 l 1,3,-1
 1000 469 l 1,4,-1
 1000 134 l 1,5,-1
 822 156 l 2,6,7
 712 169 712 169 593 210 c 128,-1,8
 474 251 474 251 370 310 c 128,-1,9
 266 369 266 369 182 436 c 128,-1,10
 98 503 98 503 49 574.5 c 128,-1,11
 0 646 0 646 0 706 c 2,0,-1
EndSplineSet
Validated: 1
EndChar

StartChar: uniE07A
Encoding: 57466 57466 54
Width: 1000
Flags: W
LayerCount: 2
Fore
SplineSet
0 462 m 1,0,-1
 0 791 l 1,1,-1
 500 797 l 1,2,-1
 1000 803 l 1,3,-1
 1000 631 l 2,4,5
 1000 569 1000 569 997.5 537 c 128,-1,6
 995 505 995 505 984.5 477.5 c 128,-1,7
 974 450 974 450 958 434 c 128,-1,8
 942 418 942 418 909 394 c 0,9,10
 764 293 764 293 588 230 c 128,-1,11
 412 167 412 167 234 153 c 2,12,-1
 0 134 l 1,13,-1
 0 462 l 1,0,-1
EndSplineSet
Validated: 1
EndChar

StartChar: uniE07B
Encoding: 57467 57467 55
Width: 1000
Flags: W
LayerCount: 2
Fore
SplineSet
0 641 m 2,0,-1
 0 800 l 1,1,-1
 128 800 l 1,2,-1
 253 800 l 1,3,-1
 150 656 l 2,4,5
 45 510 45 510 25 500 c 0,6,7
 15 494 15 494 9 525 c 0,8,9
 0 565 0 565 0 641 c 2,0,-1
EndSplineSet
Validated: 1
EndChar
